<svg id="Layer_1" data-name="Layer 1" xmlns="http://www.w3.org/2000/svg" viewBox="0 0 154.27 105.29"><defs><style>.cls-1{fill:#231f20;}</style></defs><path class="cls-1" d="M152.32,69.39l-16.64-4-25.1-47.31h0a3.83,3.83,0,0,0-2.91-2.37,11.26,11.26,0,0,0-9.33,2.18,3.82,3.82,0,0,0-1.55,3.42L95.25,74.83l-13.12,11a1,1,0,0,0-.33,1L83,91.9a1,1,0,0,0,.74.74l38.81,9.28a1,1,0,0,0,.46,0,1,1,0,0,0,.42-.21l30.5-25.48a1,1,0,0,0,.33-1l-1.19-5.11A1,1,0,0,0,152.32,69.39ZM97.1,80.32h0l.14-5,1.47-51.69a5.75,5.75,0,0,0,1.08.4,11.25,11.25,0,0,0,9.31-2.18,5.11,5.11,0,0,0,.79-.83l24.23,45.68,2.34,4.4h0l.65,1.25c.82,2.35-.64,5.25-4,8-7.07,5.7-20,8.73-28.9,6.76-4.23-.94-6.83-2.9-7.13-5.35Zm2.56-61a9.28,9.28,0,0,1,7.48-1.75c.87.24,1.45.65,1.55,1.1h0c.1.44-.25,1.07-.9,1.64a9.39,9.39,0,0,1-7.49,1.76c-.85-.23-1.44-.64-1.54-1.08h0C98.64,20.58,99,20,99.66,19.36Zm52.5,55.73L122.52,99.86l-37.72-9-.91-3.9,11.29-9.45-.08,2.7a6.65,6.65,0,0,0,0,1.48l0,.24c.4,3.39,3.57,6,8.7,7.12,9.38,2.09,23.1-1.12,30.58-7.15,4.1-3.3,5.79-7,4.63-10.26l-.08-.2h0a6.64,6.64,0,0,0-.33-.71l-.12-.2c-.08-.13-.16-.27-.25-.39l-1.26-2.38,14.32,3.46Z"/><path class="cls-1" d="M91.17,102.67c-5.56-2.3-19.41-10.56-28.09-37.46-6.14-19-1.2-41.77-.61-44.3a2.08,2.08,0,0,0-1.09-2.31L24.33.14a1.29,1.29,0,0,0-1.25,0,1.27,1.27,0,0,0-.61,1.1V55.13H1.37A1.37,1.37,0,0,0,0,56.5V67.93A1.38,1.38,0,0,0,1.37,69.3h21.1v34.64a1.34,1.34,0,0,0,1.34,1.35H90.63a1.36,1.36,0,0,0,.54-2.62ZM2,67.3V57.13H22.47V67.3Zm22.47,36V2.44l36.05,18c-.6,2.59-5.64,25.86.65,45.37C69,90,81,99.65,87.83,103.29Z"/></svg>