<svg id="Layer_1" data-name="Layer 1" xmlns="http://www.w3.org/2000/svg" viewBox="0 0 73.23 88.62"><defs><style>.cls-1{fill:#231f20;}</style></defs><path class="cls-1" d="M73.2,64.21l0-.09a.77.77,0,0,0-.07-.16L73,63.87a.4.4,0,0,0-.1-.12.39.39,0,0,0-.1-.08l-.08-.07,0,0a.05.05,0,0,0,0,0L57.4,55.87,43.74,4.12a3.85,3.85,0,0,0-2.32-3,11.23,11.23,0,0,0-9.61,0,3.85,3.85,0,0,0-2.32,3L15.83,55.87.57,63.56l0,0,0,0-.08.07-.1.08-.09.11L.14,64l-.06.15,0,.1a.84.84,0,0,0,0,.27v5.24a1,1,0,0,0,.57.93L36.25,88.51a1,1,0,0,0,.46.11,1.12,1.12,0,0,0,.47-.11L72.66,70.65a1,1,0,0,0,.57-.93V64.48A1.24,1.24,0,0,0,73.2,64.21ZM54,68.31c-.26.19-.55.37-.84.55-.12.08-.23.16-.36.23a14.69,14.69,0,0,1-1.37.73c-8.17,3.93-21.46,3.93-29.63,0-.48-.23-.94-.47-1.37-.73-.17-.1-.31-.2-.47-.31s-.5-.3-.72-.46-.49-.39-.72-.58l-.29-.24a9,9,0,0,1-.81-.83v0a4.92,4.92,0,0,1-1.31-3.32,1.5,1.5,0,0,1,0-.3L30.91,6.9l.06,0a4.78,4.78,0,0,0,.85.55,8.08,8.08,0,0,0,1.54.6,11.62,11.62,0,0,0,3.26.47,10.56,10.56,0,0,0,4.8-1.07,5.21,5.21,0,0,0,.85-.56l.06,0,13.18,50,1.56,5.92.07.25a3.85,3.85,0,0,1,0,.48,3.23,3.23,0,0,1,0,.44,4.85,4.85,0,0,1-.11.49c0,.14-.06.28-.11.42a4.37,4.37,0,0,1-.23.49c-.07.14-.12.28-.2.41s-.23.33-.35.5a4.73,4.73,0,0,1-.28.39,5.52,5.52,0,0,1-.48.49c-.12.12-.22.25-.35.36s-.41.34-.62.51S54.14,68.21,54,68.31ZM32.79,2.91a9.23,9.23,0,0,1,7.65,0c.78.42,1.24.94,1.24,1.39h0c0,.43-.48,1-1.24,1.36a9.36,9.36,0,0,1-7.65,0,4.06,4.06,0,0,1-.51-.32,1.52,1.52,0,0,1-.72-1C31.55,3.85,32,3.33,32.79,2.91ZM15.13,58.55l-.66,2.51a6.12,6.12,0,0,0-.4,1.44l0,.25c-.38,3.4,2.12,6.66,6.87,9a26.66,26.66,0,0,0,3.49,1.36,40.9,40.9,0,0,0,12.23,1.76A37.46,37.46,0,0,0,52.33,71.7l.87-.44c4.19-2.26,6.36-5.33,6-8.51v0h0l0-.22h0a6.41,6.41,0,0,0-.16-.76,1.84,1.84,0,0,0-.09-.25c0-.14-.09-.29-.14-.42l-.66-2.51,11.77,5.93L36.71,81.17,3.36,64.48ZM36.71,86.42,2.08,69.08V66.17L36.25,83.26a.92.92,0,0,0,.46.11,1,1,0,0,0,.47-.11l34-17.09v2.91Z"/></svg>