<svg id="Layer_1" data-name="Layer 1" xmlns="http://www.w3.org/2000/svg" viewBox="0 0 88.62 88.62"><defs><style>.cls-1{fill:#231f20;}</style></defs><path class="cls-1" d="M81.62,20.45v4.61a41.85,41.85,0,0,1,0,38.5v4.62a44.18,44.18,0,0,0,0-47.73Z"/><path class="cls-1" d="M63.56,81.62a41.85,41.85,0,0,1-38.5,0H20.45a44.18,44.18,0,0,0,47.73,0Z"/><path class="cls-1" d="M7,63.56a41.85,41.85,0,0,1,0-38.5V20.45A44.13,44.13,0,0,0,7,68.18Z"/><path class="cls-1" d="M25.06,7a41.85,41.85,0,0,1,38.5,0h4.62A44.18,44.18,0,0,0,20.45,7Z"/><path class="cls-1" d="M75,80.39H75l-9.71-.49a412.38,412.38,0,0,0-41.9,0l-9.71.49h0A5.37,5.37,0,0,1,8.23,75l.49-9.78a412.38,412.38,0,0,0,0-41.9l-.49-9.71a5.37,5.37,0,0,1,5.35-5.42l9.78.49a412.38,412.38,0,0,0,41.9,0L75,8.23h0a5.37,5.37,0,0,1,5.42,5.35l-.49,9.78a412.38,412.38,0,0,0,0,41.9L80.39,75A5.37,5.37,0,0,1,75,80.39ZM13.5,11.23a2.33,2.33,0,0,0-2.27,2.35l.49,9.63a418.3,418.3,0,0,1,0,42.2l-.49,9.71a2.33,2.33,0,0,0,2.35,2.27l9.63-.49a418.3,418.3,0,0,1,42.2,0l9.67.49A2.35,2.35,0,0,0,77.39,75l-.49-9.63a418.3,418.3,0,0,1,0-42.2l.5-9.71A2.35,2.35,0,0,0,75,11.23l-9.63.49a418.3,418.3,0,0,1-42.2,0Z"/></svg>