<svg id="Layer_1" data-name="Layer 1" xmlns="http://www.w3.org/2000/svg" viewBox="0 0 88.62 88.62"><defs><style>.cls-1{fill:#231f20;}</style></defs><path class="cls-1" d="M68.93,57.74l0-.07a.47.47,0,0,0-.05-.1.43.43,0,0,0,0-.07l-.07-.08-.07-.05,0,0h0l0,0L58.22,52.08,49,17A2.6,2.6,0,0,0,47.4,15a7.65,7.65,0,0,0-6.51,0A2.64,2.64,0,0,0,39.32,17L30.07,52.09l-10.34,5.2,0,0h0l-.06,0-.06.05-.07.08,0,.07a.3.3,0,0,0,0,.1l0,.07a1.1,1.1,0,0,0,0,.18v3.55a.71.71,0,0,0,.38.63L43.9,74.2a.67.67,0,0,0,.31.07.71.71,0,0,0,.32-.07l24-12.1a.71.71,0,0,0,.39-.63V57.92A1.1,1.1,0,0,0,68.93,57.74Zm-13,2.78-.57.37-.24.15c-.29.17-.6.34-.93.5-5.53,2.66-14.53,2.66-20.07,0-.32-.16-.63-.33-.92-.5a3.7,3.7,0,0,1-.33-.21c-.16-.1-.33-.2-.48-.31s-.33-.26-.49-.39-.14-.11-.2-.16a7.08,7.08,0,0,1-.54-.57h0a3.33,3.33,0,0,1-.89-2.25,1.34,1.34,0,0,1,0-.2l10-38,0,0a4.84,4.84,0,0,0,.58.38,5.61,5.61,0,0,0,1,.4,7.67,7.67,0,0,0,2.21.32,7.13,7.13,0,0,0,3.25-.72,3.64,3.64,0,0,0,.58-.38l0,0L57,52.75l1,4,0,.17c0,.11,0,.22,0,.33s0,.19,0,.29a2,2,0,0,1-.08.33c0,.1,0,.19-.07.29s-.11.22-.16.33a2.39,2.39,0,0,1-.13.28c-.07.11-.16.22-.24.33l-.19.27-.32.33a2.83,2.83,0,0,1-.24.25c-.13.12-.28.23-.42.34S56,60.45,55.92,60.52ZM41.56,16.21a6.27,6.27,0,0,1,5.18,0c.53.29.84.64.84.94h0c0,.3-.33.65-.84.92a6.24,6.24,0,0,1-5.18,0,2.31,2.31,0,0,1-.35-.21,1.05,1.05,0,0,1-.49-.71C40.72,16.85,41,16.5,41.56,16.21Zm-12,37.69-.45,1.7a4.41,4.41,0,0,0-.26,1l0,.16c-.26,2.31,1.44,4.52,4.65,6.07a18.37,18.37,0,0,0,2.36.92,27.78,27.78,0,0,0,8.29,1.19,25.36,25.36,0,0,0,10.64-2.11l.59-.3c2.84-1.53,4.31-3.61,4.07-5.77h0l0-.15h0a3.82,3.82,0,0,0-.11-.51l-.06-.17a2.47,2.47,0,0,0-.1-.29l-.44-1.7,8,4L44.21,69.23,21.62,57.92ZM44.21,72.78,20.75,61v-2L43.9,70.64a.68.68,0,0,0,.31.08.72.72,0,0,0,.32-.08l23-11.58v2Z"/><path class="cls-1" d="M81.62,20.45v4.61a41.85,41.85,0,0,1,0,38.5v4.62a44.18,44.18,0,0,0,0-47.73Z"/><path class="cls-1" d="M63.56,81.62a41.85,41.85,0,0,1-38.5,0H20.45a44.18,44.18,0,0,0,47.73,0Z"/><path class="cls-1" d="M7,63.56a41.85,41.85,0,0,1,0-38.5V20.45A44.13,44.13,0,0,0,7,68.18Z"/><path class="cls-1" d="M25.06,7a41.85,41.85,0,0,1,38.5,0h4.62A44.18,44.18,0,0,0,20.45,7Z"/><path class="cls-1" d="M75,80.39H75l-9.71-.49a412.38,412.38,0,0,0-41.9,0l-9.71.49h0A5.37,5.37,0,0,1,8.23,75l.49-9.78a412.38,412.38,0,0,0,0-41.9l-.49-9.71a5.37,5.37,0,0,1,5.35-5.42l9.78.49a412.38,412.38,0,0,0,41.9,0L75,8.23h0a5.37,5.37,0,0,1,5.42,5.35l-.49,9.78a412.38,412.38,0,0,0,0,41.9L80.39,75A5.37,5.37,0,0,1,75,80.39ZM13.5,11.23a2.33,2.33,0,0,0-2.27,2.35l.49,9.63a418.3,418.3,0,0,1,0,42.2l-.49,9.71a2.33,2.33,0,0,0,2.35,2.27l9.63-.49a418.3,418.3,0,0,1,42.2,0l9.67.49A2.35,2.35,0,0,0,77.39,75l-.49-9.63a418.3,418.3,0,0,1,0-42.2l.5-9.71A2.35,2.35,0,0,0,75,11.23l-9.63.49a418.3,418.3,0,0,1-42.2,0Z"/></svg>