<?xml version="1.0" encoding="UTF-8" standalone="no" ?>
<!DOCTYPE svg PUBLIC "-//W3C//DTD SVG 1.1//EN" "http://www.w3.org/Graphics/SVG/1.1/DTD/svg11.dtd">
<svg xmlns="http://www.w3.org/2000/svg" xmlns:xlink="http://www.w3.org/1999/xlink" version="1.1" width="89" height="89" viewBox="0 0 89 89" xml:space="preserve">
<desc>Created with Fabric.js 3.6.6</desc>
<defs>
</defs>
<g transform="matrix(0 1 -1 0 43.58 45.29)"  >
<path style="stroke: none; stroke-width: 0; stroke-dasharray: none; stroke-linecap: butt; stroke-dashoffset: 0; stroke-linejoin: miter; stroke-miterlimit: 4; fill: rgb(35,31,32); fill-rule: nonzero; opacity: 1;"  transform=" translate(-36.65, -44.33)" d="M 73.2 64.21 l 0 -0.09 a 0.77 0.77 0 0 0 -0.07 -0.16 L 73 63.87 a 0.4 0.4 0 0 0 -0.1 -0.12 a 0.39 0.39 0 0 0 -0.1 -0.08 l -0.08 -0.07 l 0 0 a 0.05 0.05 0 0 0 0 0 L 57.4 55.87 L 43.74 4.12 a 3.85 3.85 0 0 0 -2.32 -3 a 11.23 11.23 0 0 0 -9.61 0 a 3.85 3.85 0 0 0 -2.32 3 L 15.83 55.87 L 0.57 63.56 l 0 0 l 0 0 l -0.08 0.07 l -0.1 0.08 l -0.09 0.11 L 0.14 64 l -0.06 0.15 l 0 0.1 a 0.84 0.84 0 0 0 0 0.27 v 5.24 a 1 1 0 0 0 0.57 0.93 L 36.25 88.51 a 1 1 0 0 0 0.46 0.11 a 1.12 1.12 0 0 0 0.47 -0.11 L 72.66 70.65 a 1 1 0 0 0 0.57 -0.93 V 64.48 A 1.24 1.24 0 0 0 73.2 64.21 Z M 54 68.31 c -0.26 0.19 -0.55 0.37 -0.84 0.55 c -0.12 0.08 -0.23 0.16 -0.36 0.23 a 14.69 14.69 0 0 1 -1.37 0.73 c -8.17 3.93 -21.46 3.93 -29.63 0 c -0.48 -0.23 -0.94 -0.47 -1.37 -0.73 c -0.17 -0.1 -0.31 -0.2 -0.47 -0.31 s -0.5 -0.3 -0.72 -0.46 s -0.49 -0.39 -0.72 -0.58 l -0.29 -0.24 a 9 9 0 0 1 -0.81 -0.83 v 0 a 4.92 4.92 0 0 1 -1.31 -3.32 a 1.5 1.5 0 0 1 0 -0.3 L 30.91 6.9 l 0.06 0 a 4.78 4.78 0 0 0 0.85 0.55 a 8.08 8.08 0 0 0 1.54 0.6 a 11.62 11.62 0 0 0 3.26 0.47 a 10.56 10.56 0 0 0 4.8 -1.07 a 5.21 5.21 0 0 0 0.85 -0.56 l 0.06 0 l 13.18 50 l 1.56 5.92 l 0.07 0.25 a 3.85 3.85 0 0 1 0 0.48 a 3.23 3.23 0 0 1 0 0.44 a 4.85 4.85 0 0 1 -0.11 0.49 c 0 0.14 -0.06 0.28 -0.11 0.42 a 4.37 4.37 0 0 1 -0.23 0.49 c -0.07 0.14 -0.12 0.28 -0.2 0.41 s -0.23 0.33 -0.35 0.5 a 4.73 4.73 0 0 1 -0.28 0.39 a 5.52 5.52 0 0 1 -0.48 0.49 c -0.12 0.12 -0.22 0.25 -0.35 0.36 s -0.41 0.34 -0.62 0.51 S 54.14 68.21 54 68.31 Z M 32.79 2.91 a 9.23 9.23 0 0 1 7.65 0 c 0.78 0.42 1.24 0.94 1.24 1.39 h 0 c 0 0.43 -0.48 1 -1.24 1.36 a 9.36 9.36 0 0 1 -7.65 0 a 4.06 4.06 0 0 1 -0.51 -0.32 a 1.52 1.52 0 0 1 -0.72 -1 C 31.55 3.85 32 3.33 32.79 2.91 Z M 15.13 58.55 l -0.66 2.51 a 6.12 6.12 0 0 0 -0.4 1.44 l 0 0.25 c -0.38 3.4 2.12 6.66 6.87 9 a 26.66 26.66 0 0 0 3.49 1.36 a 40.9 40.9 0 0 0 12.23 1.76 A 37.46 37.46 0 0 0 52.33 71.7 l 0.87 -0.44 c 4.19 -2.26 6.36 -5.33 6 -8.51 v 0 h 0 l 0 -0.22 h 0 a 6.41 6.41 0 0 0 -0.16 -0.76 a 1.84 1.84 0 0 0 -0.09 -0.25 c 0 -0.14 -0.09 -0.29 -0.14 -0.42 l -0.66 -2.51 l 11.77 5.93 L 36.71 81.17 L 3.36 64.48 Z M 36.71 86.42 L 2.08 69.08 V 66.17 L 36.25 83.26 a 0.92 0.92 0 0 0 0.46 0.11 a 1 1 0 0 0 0.47 -0.11 l 34 -17.09 v 2.91 Z" stroke-linecap="round" />
</g>
</svg>