<svg id="Layer_1" data-name="Layer 1" xmlns="http://www.w3.org/2000/svg" viewBox="0 0 87.45 87.45"><defs><style>.cls-1{fill:#231f20;}</style></defs><path class="cls-1" d="M6.78,43.72a1,1,0,0,0,1,1H42.05L34.89,57.1a.94.94,0,0,0,0,1,1,1,0,0,0,.83.48h16a1,1,0,0,0,.83-.48.94.94,0,0,0,0-1L45.39,44.69H79.7a1,1,0,1,0,0-1.93h-72A1,1,0,0,0,6.78,43.72Zm30.61,12.9,6.33-11,6.34,11Z"/><path class="cls-1" d="M43.72,0A43.73,43.73,0,1,0,87.45,43.72,43.77,43.77,0,0,0,43.72,0Zm0,85.52a41.8,41.8,0,1,1,41.8-41.8A41.84,41.84,0,0,1,43.72,85.52Z"/></svg>