<svg id="Layer_1" data-name="Layer 1" xmlns="http://www.w3.org/2000/svg" viewBox="0 0 88.3 88.3"><defs><style>.cls-1{fill:#231f20;}</style></defs><path class="cls-1" d="M49.61,57.18H37.76l5.49-9.53-1.2-1.81L35.22,57.66a1.06,1.06,0,0,0,0,1,1,1,0,0,0,.85.48H50.9Zm-9.34-14H7.82a1,1,0,0,0,0,1.95H41.58Z"/><path class="cls-1" d="M44.15,0A44.15,44.15,0,1,0,88.3,44.15,44.21,44.21,0,0,0,44.15,0ZM68.8,78.38l-1,.74-1.39.9-1.1.65A42.18,42.18,0,0,1,18.57,10.61c.33-.26.67-.52,1-.76s.91-.63,1.37-.93.71-.47,1.07-.7A42.19,42.19,0,0,1,68.8,78.38Z"/><path class="cls-1" d="M81.46,44.15a1,1,0,0,1-1,1H46.62L68.8,78.38l-1,.74-1.39.9L52.43,59.11l-5.76-8.63L44,46.41l-2.15-3.24L19.58,9.85c.45-.32.91-.63,1.37-.93s.71-.47,1.07-.7l23.31,35H80.48A1,1,0,0,1,81.46,44.15Z"/></svg>