<svg id="Layer_1" data-name="Layer 1" xmlns="http://www.w3.org/2000/svg" viewBox="0 0 87.71 87.71"><defs><style>.cls-1{fill:#231f20;}</style></defs><path class="cls-1" d="M39.12,40.85,10.88,29.15a1,1,0,0,0-1.27.54,1,1,0,0,0,.53,1.25L41.06,43.75ZM49.76,56.8H37.51l5.68-9.86L42,45.14,35,57.28a1,1,0,0,0,0,1,1,1,0,0,0,.83.48H51.05Z"/><path class="cls-1" d="M43.86,0A43.86,43.86,0,1,0,87.71,43.86,43.91,43.91,0,0,0,43.86,0Zm0,85.78A41.91,41.91,0,0,1,18.76,10.3l1-.75L41.24,41.73,52.45,58.54,66.27,79.27c-.35.23-.72.45-1.09.66A41.55,41.55,0,0,1,43.86,85.78Zm24.81-8.15L48,46.62,76.82,58.56a1.08,1.08,0,0,0,.38.08,1,1,0,0,0,.37-1.87L46.05,43.72,22.22,8A41.91,41.91,0,0,1,68.67,77.63Z"/></svg>