<svg id="Layer_1" data-name="Layer 1" xmlns="http://www.w3.org/2000/svg" viewBox="0 0 88.23 88.23"><defs><style>.cls-1{fill:#231f20;}</style></defs><path class="cls-1" d="M78,57.11,11,29.33a1,1,0,0,0-1.27.52,1,1,0,0,0,.52,1.28L42.72,44.59l-7.52,13a1,1,0,0,0,0,1,1,1,0,0,0,.84.49H52.19A1,1,0,0,0,53,57.62L46.39,46.11l30.9,12.8a1,1,0,0,0,.37.07,1,1,0,0,0,.9-.6A1,1,0,0,0,78,57.11Zm-40.3,0,6.39-11.07,6.39,11.07Z"/><path class="cls-1" d="M44.12,0A44.12,44.12,0,1,0,88.23,44.12,44.17,44.17,0,0,0,44.12,0Zm0,86.29A42.17,42.17,0,1,1,86.29,44.12,42.21,42.21,0,0,1,44.12,86.29Z"/></svg>